<mxfile host="app.diagrams.net" modified="2024-05-26T14:32:59.036Z" agent="Mozilla/5.0 (Windows NT 10.0; Win64; x64) AppleWebKit/537.36 (KHTML, like Gecko) Chrome/122.0.0.0 YaBrowser/24.4.0.0 Safari/537.36" etag="O797vxikvY4qbCG38p1C" version="24.4.8" type="device">
  <diagram name="Страница — 1" id="XyznGqoNTfOzFhI74OZC">
    <mxGraphModel dx="792" dy="447" grid="1" gridSize="10" guides="1" tooltips="1" connect="1" arrows="1" fold="1" page="1" pageScale="1" pageWidth="827" pageHeight="1169" math="0" shadow="0">
      <root>
        <mxCell id="0" />
        <mxCell id="1" parent="0" />
        <mxCell id="uKQzvkybOWWARUQstQ_6-4" value="" style="edgeStyle=orthogonalEdgeStyle;rounded=0;orthogonalLoop=1;jettySize=auto;html=1;" parent="1" source="uKQzvkybOWWARUQstQ_6-1" target="uKQzvkybOWWARUQstQ_6-3" edge="1">
          <mxGeometry relative="1" as="geometry" />
        </mxCell>
        <mxCell id="uKQzvkybOWWARUQstQ_6-1" value="Start" style="rounded=1;whiteSpace=wrap;html=1;" parent="1" vertex="1">
          <mxGeometry x="170" y="100" width="120" height="60" as="geometry" />
        </mxCell>
        <mxCell id="uKQzvkybOWWARUQstQ_6-3" value="&lt;div style=&quot;font-family: Consolas, &amp;quot;Courier New&amp;quot;, monospace; font-size: 14px; line-height: 19px; white-space: pre;&quot;&gt;&lt;p style=&quot;&quot;&gt;&lt;font style=&quot;background-color: rgb(255, 255, 255);&quot; color=&quot;#330000&quot;&gt;massive_input = []&lt;br&gt;&lt;/font&gt;&lt;/p&gt;&lt;p style=&quot;&quot;&gt;&lt;font style=&quot;background-color: rgb(255, 255, 255);&quot; color=&quot;#330000&quot;&gt;massive_otput = []&lt;/font&gt;&lt;/p&gt;&lt;p style=&quot;background-color: rgb(31, 31, 31); color: rgb(204, 204, 204);&quot;&gt;&lt;/p&gt;&lt;/div&gt;" style="rounded=0;whiteSpace=wrap;html=1;" parent="1" vertex="1">
          <mxGeometry x="150" y="210" width="160" height="60" as="geometry" />
        </mxCell>
        <mxCell id="Np0aggGHajMlMNPXgIbb-4" style="edgeStyle=orthogonalEdgeStyle;rounded=0;orthogonalLoop=1;jettySize=auto;html=1;entryX=0.5;entryY=0;entryDx=0;entryDy=0;" edge="1" parent="1" source="Np0aggGHajMlMNPXgIbb-1" target="Np0aggGHajMlMNPXgIbb-3">
          <mxGeometry relative="1" as="geometry" />
        </mxCell>
        <mxCell id="Np0aggGHajMlMNPXgIbb-1" value="&lt;p style=&quot;line-height: 19px;&quot;&gt;&lt;font color=&quot;#330000&quot;&gt;&#39;Для окончания ввода напишите end&#39;&lt;br&gt;&#39;Введите элемент массива: &#39; massive_input[]&lt;/font&gt;&lt;/p&gt;" style="shape=parallelogram;perimeter=parallelogramPerimeter;whiteSpace=wrap;html=1;fixedSize=1;" vertex="1" parent="1">
          <mxGeometry x="90" y="310" width="290" height="60" as="geometry" />
        </mxCell>
        <mxCell id="Np0aggGHajMlMNPXgIbb-2" style="edgeStyle=orthogonalEdgeStyle;rounded=0;orthogonalLoop=1;jettySize=auto;html=1;entryX=0.483;entryY=-0.011;entryDx=0;entryDy=0;entryPerimeter=0;" edge="1" parent="1" source="uKQzvkybOWWARUQstQ_6-3" target="Np0aggGHajMlMNPXgIbb-1">
          <mxGeometry relative="1" as="geometry" />
        </mxCell>
        <mxCell id="Np0aggGHajMlMNPXgIbb-8" style="edgeStyle=orthogonalEdgeStyle;rounded=0;orthogonalLoop=1;jettySize=auto;html=1;entryX=0;entryY=0.5;entryDx=0;entryDy=0;" edge="1" parent="1" source="Np0aggGHajMlMNPXgIbb-3" target="Np0aggGHajMlMNPXgIbb-1">
          <mxGeometry relative="1" as="geometry">
            <Array as="points">
              <mxPoint x="40" y="485" />
              <mxPoint x="40" y="340" />
            </Array>
          </mxGeometry>
        </mxCell>
        <mxCell id="Np0aggGHajMlMNPXgIbb-9" value="NO" style="edgeLabel;html=1;align=center;verticalAlign=middle;resizable=0;points=[];" vertex="1" connectable="0" parent="Np0aggGHajMlMNPXgIbb-8">
          <mxGeometry x="-0.6665" y="2" relative="1" as="geometry">
            <mxPoint as="offset" />
          </mxGeometry>
        </mxCell>
        <mxCell id="Np0aggGHajMlMNPXgIbb-11" value="" style="edgeStyle=orthogonalEdgeStyle;rounded=0;orthogonalLoop=1;jettySize=auto;html=1;" edge="1" parent="1" source="Np0aggGHajMlMNPXgIbb-3" target="Np0aggGHajMlMNPXgIbb-10">
          <mxGeometry relative="1" as="geometry" />
        </mxCell>
        <mxCell id="Np0aggGHajMlMNPXgIbb-12" value="YES" style="edgeLabel;html=1;align=center;verticalAlign=middle;resizable=0;points=[];" vertex="1" connectable="0" parent="Np0aggGHajMlMNPXgIbb-11">
          <mxGeometry x="-0.0616" y="-2" relative="1" as="geometry">
            <mxPoint as="offset" />
          </mxGeometry>
        </mxCell>
        <mxCell id="Np0aggGHajMlMNPXgIbb-3" value="input massive_input[i] = &quot;end&quot;" style="rhombus;whiteSpace=wrap;html=1;" vertex="1" parent="1">
          <mxGeometry x="161.25" y="430" width="147.5" height="110" as="geometry" />
        </mxCell>
        <mxCell id="Np0aggGHajMlMNPXgIbb-14" value="" style="edgeStyle=orthogonalEdgeStyle;rounded=0;orthogonalLoop=1;jettySize=auto;html=1;" edge="1" parent="1" source="Np0aggGHajMlMNPXgIbb-10">
          <mxGeometry relative="1" as="geometry">
            <mxPoint x="514.3999999999999" y="645" as="targetPoint" />
          </mxGeometry>
        </mxCell>
        <mxCell id="Np0aggGHajMlMNPXgIbb-15" value="YES" style="edgeLabel;html=1;align=center;verticalAlign=middle;resizable=0;points=[];" vertex="1" connectable="0" parent="Np0aggGHajMlMNPXgIbb-14">
          <mxGeometry x="-0.0124" y="3" relative="1" as="geometry">
            <mxPoint as="offset" />
          </mxGeometry>
        </mxCell>
        <mxCell id="Np0aggGHajMlMNPXgIbb-21" style="edgeStyle=orthogonalEdgeStyle;rounded=0;orthogonalLoop=1;jettySize=auto;html=1;" edge="1" parent="1" source="Np0aggGHajMlMNPXgIbb-10">
          <mxGeometry relative="1" as="geometry">
            <mxPoint x="514.375" y="360" as="targetPoint" />
          </mxGeometry>
        </mxCell>
        <mxCell id="Np0aggGHajMlMNPXgIbb-23" value="NO" style="edgeLabel;html=1;align=center;verticalAlign=middle;resizable=0;points=[];" vertex="1" connectable="0" parent="Np0aggGHajMlMNPXgIbb-21">
          <mxGeometry x="-0.1114" y="-1" relative="1" as="geometry">
            <mxPoint as="offset" />
          </mxGeometry>
        </mxCell>
        <mxCell id="Np0aggGHajMlMNPXgIbb-10" value="i in range(len(massive_input))" style="rhombus;whiteSpace=wrap;html=1;" vertex="1" parent="1">
          <mxGeometry x="388.75" y="430" width="251.25" height="110" as="geometry" />
        </mxCell>
        <mxCell id="Np0aggGHajMlMNPXgIbb-18" value="" style="edgeStyle=orthogonalEdgeStyle;rounded=0;orthogonalLoop=1;jettySize=auto;html=1;" edge="1" parent="1" source="Np0aggGHajMlMNPXgIbb-16" target="Np0aggGHajMlMNPXgIbb-17">
          <mxGeometry relative="1" as="geometry" />
        </mxCell>
        <mxCell id="Np0aggGHajMlMNPXgIbb-16" value="len(massive_input[i]) &amp;lt;= 3" style="rhombus;whiteSpace=wrap;html=1;" vertex="1" parent="1">
          <mxGeometry x="442.19" y="650" width="144.38" height="120" as="geometry" />
        </mxCell>
        <mxCell id="Np0aggGHajMlMNPXgIbb-17" value="massive_otput.append(massive_input[i])" style="rounded=0;whiteSpace=wrap;html=1;" vertex="1" parent="1">
          <mxGeometry x="367.19" y="820" width="294.38" height="60" as="geometry" />
        </mxCell>
        <mxCell id="Np0aggGHajMlMNPXgIbb-19" style="edgeStyle=orthogonalEdgeStyle;rounded=0;orthogonalLoop=1;jettySize=auto;html=1;entryX=1;entryY=0.545;entryDx=0;entryDy=0;entryPerimeter=0;" edge="1" parent="1" source="Np0aggGHajMlMNPXgIbb-16" target="Np0aggGHajMlMNPXgIbb-10">
          <mxGeometry relative="1" as="geometry">
            <Array as="points">
              <mxPoint x="660" y="710" />
              <mxPoint x="660" y="485" />
              <mxPoint x="640" y="485" />
            </Array>
          </mxGeometry>
        </mxCell>
        <mxCell id="Np0aggGHajMlMNPXgIbb-20" value="No" style="edgeLabel;html=1;align=center;verticalAlign=middle;resizable=0;points=[];" vertex="1" connectable="0" parent="Np0aggGHajMlMNPXgIbb-19">
          <mxGeometry x="0.1388" relative="1" as="geometry">
            <mxPoint as="offset" />
          </mxGeometry>
        </mxCell>
        <mxCell id="Np0aggGHajMlMNPXgIbb-22" value="&lt;div&gt;print(&#39;Заданный массив: &#39;, massive_input)&lt;/div&gt;&lt;div&gt;print(&#39;Новый массив: &#39;, massive_otput)&lt;/div&gt;" style="rounded=1;whiteSpace=wrap;html=1;" vertex="1" parent="1">
          <mxGeometry x="399.38" y="300" width="230" height="60" as="geometry" />
        </mxCell>
      </root>
    </mxGraphModel>
  </diagram>
</mxfile>
